<?xml version="1.0" encoding="UTF-8" standalone="no"?>
<svg
   xmlns:dc="http://purl.org/dc/elements/1.1/"
   xmlns:cc="http://creativecommons.org/ns#"
   xmlns:rdf="http://www.w3.org/1999/02/22-rdf-syntax-ns#"
   xmlns:svg="http://www.w3.org/2000/svg"
   xmlns="http://www.w3.org/2000/svg"
   xmlns:sodipodi="http://sodipodi.sourceforge.net/DTD/sodipodi-0.dtd"
   xmlns:inkscape="http://www.inkscape.org/namespaces/inkscape"
   height="32px"
   version="1.1"
   viewBox="0 0 32 32"
   width="32px"
   id="svg3737"
   sodipodi:docname="edit_512.svg"
   inkscape:version="0.92.3 (2405546, 2018-03-11)"
   inkscape:export-filename="C:\Users\zhang\Downloads\edit_512.png"
   inkscape:export-xdpi="201"
   inkscape:export-ydpi="201">
  <metadata
     id="CCiLabEditIcon">
    <rdf:RDF>
      <cc:Work
         rdf:about="">
        <dc:format>image/svg+xml</dc:format>
        <dc:type
           rdf:resource="http://purl.org/dc/dcmitype/StillImage" />
        <dc:title></dc:title>
      </cc:Work>
    </rdf:RDF>
  </metadata>
  <sodipodi:namedview
     pagecolor="#ffffff"
     bordercolor="#666666"
     borderopacity="1"
     objecttolerance="10"
     gridtolerance="10"
     guidetolerance="10"
     inkscape:pageopacity="0"
     inkscape:pageshadow="2"
     inkscape:window-width="1920"
     inkscape:window-height="1137"
     id="namedview3739"
     showgrid="true"
     inkscape:zoom="20.875"
     inkscape:cx="34.083832"
     inkscape:cy="58.730539"
     inkscape:window-x="-8"
     inkscape:window-y="-8"
     inkscape:window-maximized="1"
     inkscape:current-layer="svg3737">
    <inkscape:grid
       type="xygrid"
       id="grid4639" />
  </sodipodi:namedview>
  <desc
     id="desc3730" />
  <defs
     id="defs3732" />
  <g
     id="g5394"
     transform="matrix(2.2426061,0,0,2.2426061,-5.5690731,-29.25963)"
     inkscape:export-xdpi="96"
     inkscape:export-ydpi="96">
    <g
       style="fill:#99f0f1;fill-opacity:0.87096773"
       id="g3746">
      <g
         style="fill:#99f0f1;fill-opacity:0.87096773;fill-rule:evenodd;stroke:none;stroke-width:1"
         id="Page-1">
        <g
           style="fill:#99f0f1;fill-opacity:0.87096773"
           id="icon-136-document-edit">
          <path
             style="fill:#99f0f1;fill-opacity:0.87096773"
             d="M 26.443228,12.150335 15.157013,23.449906 v 0 L 12.551447,20.84434 23.843538,9.5506451 Z M 27.149916,11.44281 28.879095,9.7115841 C 29.269069,9.3211489 29.266195,8.6865042 28.8743,8.295685 L 27.694487,7.11911 C 27.301865,6.7275656 26.669258,6.7245247 26.277913,7.1159253 L 24.550595,8.8434882 Z M 11.903706,21.610813 11.26416,24.72351 14.399065,24.106171 Z M 22,18 V 28.002578 C 22,29.109075 21.105724,30 20.002578,30 H 4.9974219 C 3.8909254,30 3,29.101288 3,27.99267 V 5.0073299 C 3,3.8983383 3.8992496,3 5.0085302,3 H 15 V 9.0018986 C 15,10.113294 15.898081,11 17.005919,11 H 21 l 4.580107,-4.5801067 c 0.792674,-0.7926743 2.051284,-0.7885027 2.830143,-0.00964 l 1.1795,1.1794992 c 0.776438,0.7764385 0.774542,2.0459582 -0.0096,2.8301435 z M 16,3 V 8.9970707 C 16,9.5509732 16.450975,10 16.990778,10 H 22 Z"
             id="document-edit"
             inkscape:connector-curvature="0" />
        </g>
      </g>
    </g>
    <rect
       y="11.185629"
       x="4"
       height="0.81437153"
       width="15"
       id="rect4553-5"
       style="fill:#ffffff;fill-opacity:1;stroke-width:1.25755286" />
    <rect
       y="15.185629"
       x="4"
       height="0.81437153"
       width="12.999999"
       id="rect4553-5-4-5"
       style="fill:#ffffff;fill-opacity:1;stroke-width:1.17071795" />
    <rect
       y="19.185629"
       x="3.9940119"
       height="0.81437153"
       width="9.0059881"
       id="rect4553-5-4-5-6-1"
       style="fill:#ffffff;fill-opacity:1;stroke-width:0.97442031" />
    <rect
       y="27.185629"
       x="4"
       height="0.81437153"
       width="16.999998"
       id="rect4553-5-4-5-6-2-1"
       style="fill:#ffffff;fill-opacity:1;stroke-width:1.33876729" />
    <g
       transform="translate(0,0.18562889)"
       id="g5379">
      <rect
         style="fill:#ffffff;fill-opacity:1;stroke-width:0.85907215"
         id="rect4553-5-4-5-6-2-9"
         width="6.9999995"
         height="0.81437153"
         x="4"
         y="23" />
      <rect
         style="fill:#ffffff;fill-opacity:1;stroke-width:0.72604847"
         id="rect4553-5-4-5-6-2-9-1"
         width="4.9999995"
         height="0.81437153"
         x="16"
         y="23" />
    </g>
    <rect
       y="19.185629"
       x="20"
       height="0.81437153"
       width="0.99999994"
       id="rect4553-5-4-5-6-2-9-1-9-7"
       style="fill:#ffffff;fill-opacity:1;stroke-width:0.32469875" />
    <rect
       y="7.1856284"
       x="4"
       height="0.81437153"
       width="11"
       id="rect4553-6-4"
       style="fill:#ffffff;fill-opacity:1;stroke-width:1.07690394" />
  </g>
</svg>
