<?xml version="1.0"?>
<svg xmlns="http://www.w3.org/2000/svg" height="512px" viewBox="0 0 60 60" width="512px"><path d="m59.925781 28.078125c-.035156-.453125-.371093-.820313-.816406-.902344l-4.371094-.796875c-.125-.859375-.292969-1.703125-.5-2.515625l3.742188-2.410156c.386719-.25.554687-.726563.40625-1.164063-.398438-1.1875-.886719-2.367187-1.449219-3.503906-.207031-.410156-.664062-.625-1.109375-.53125l-4.347656.941406c-.4375-.734374-.917969-1.445312-1.429688-2.125l2.53125-3.664062c.261719-.375.230469-.878906-.066406-1.222656-.835937-.957032-1.742187-1.867188-2.699219-2.699219-.347656-.296875-.847656-.324219-1.226562-.066406l-3.664063 2.53125c-.675781-.515625-1.386719-.992188-2.125-1.433594l.945313-4.34375c.097656-.445313-.121094-.90625-.53125-1.109375-1.136719-.5625-2.316406-1.050781-3.507813-1.449219-.433593-.148437-.910156.019531-1.160156.402344l-2.410156 3.746094c-.8125-.210938-1.65625-.375-2.515625-.5l-.796875-4.371094c-.082031-.445313-.449219-.78125-.902344-.8164062-.59375-.0507813-1.222656-.0742188-1.921875-.0742188s-1.328125.0234375-1.921875.0742188c-.453125.0390622-.820313.3710932-.902344.8164062l-.796875 4.371094c-.859375.125-1.703125.292969-2.515625.5l-2.410156-3.742188c-.25-.386719-.726563-.554687-1.164063-.40625-1.1875.398438-2.367187.886719-3.503906 1.449219-.410156.203125-.628906.664062-.53125 1.109375l.941406 4.34375c-.734374.441406-1.445312.921875-2.125 1.433594l-3.664062-2.53125c-.375-.257813-.878906-.230469-1.222656.066406-.957032.832031-1.867188 1.742187-2.699219 2.699219-.300781.34375-.328125.847656-.066406 1.222656l2.53125 3.664062c-.515625.679688-.992188 1.390626-1.433594 2.125l-4.34375-.941406c-.445313-.09375-.90625.121094-1.109375.53125-.5625 1.136719-1.050781 2.316406-1.449219 3.503906-.148437.4375.019531.914063.402344 1.164063l3.746094 2.410156c-.210938.8125-.375 1.65625-.5 2.515625l-4.371094.796875c-.445313.082031-.78125.449219-.8164062.902344-.0507813.59375-.0742188 1.222656-.0742188 1.921875s.0234375 1.328125.0742188 1.921875c.0390622.453125.3710932.820313.8164062.902344l4.371094.796875c.125.859375.292969 1.703125.5 2.515625l-3.742188 2.410156c-.386719.25-.554687.726563-.40625 1.164063.398438 1.1875.886719 2.367187 1.449219 3.503906.207031.410156.664062.621094 1.109375.53125l4.347656-.941406c.4375.734374.917969 1.445312 1.429688 2.125l-2.53125 3.664062c-.257813.375-.230469.878906.066406 1.222656.835937.957032 1.742187 1.867188 2.699219 2.699219.34375.296875.847656.324219 1.226562.066406l3.664063-2.53125c.675781.515625 1.386719.992188 2.125 1.433594l-.945313 4.34375c-.097656.445313.121094.90625.53125 1.109375 1.136719.5625 2.316406 1.050781 3.507813 1.449219.433593.152343.910156-.019531 1.160156-.402344l2.410156-3.746094c.8125.210938 1.65625.375 2.515625.5l.796875 4.371094c.082031.445313.453125.78125.902344.816406.59375.050781 1.222656.074219 1.921875.074219s1.328125-.023438 1.921875-.074219c.453125-.039062.820313-.371093.902344-.816406l.796875-4.371094c.859375-.125 1.703125-.292969 2.515625-.5l2.410156 3.742188c.25.386719.726563.554687 1.164063.40625 1.1875-.398438 2.367187-.886719 3.503906-1.449219.410156-.207031.628906-.664062.53125-1.109375l-.941406-4.347656c.734374-.4375 1.445312-.917969 2.125-1.429688l3.664062 2.53125c.375.257813.878906.230469 1.222656-.066406.957032-.835937 1.867188-1.742187 2.699219-2.699219.300781-.34375.328125-.847656.066406-1.226562l-2.53125-3.664063c.515625-.675781.992188-1.386719 1.433594-2.125l4.34375.945313c.445313.089844.90625-.121094 1.109375-.53125.5625-1.136719 1.050781-2.316406 1.449219-3.507813.148437-.433593-.019531-.910156-.402344-1.160156l-3.746094-2.410156c.210938-.8125.375-1.65625.5-2.515625l4.371094-.796875c.445313-.082031.78125-.453125.816406-.902344.050781-.59375.074219-1.222656.074219-1.921875s-.023438-1.328125-.074219-1.921875zm-27.269531-20.925781c1.265625.144531 2.492188.390625 3.640625.726562.429687.125.882813-.042968 1.125-.417968l2.378906-3.695313c.613281.226563 1.222657.480469 1.824219.753906l-.933594 4.289063c-.09375.429687.105469.871094.496094 1.085937 1.085938.601563 2.121094 1.300781 3.070312 2.070313.347657.28125.835938.300781 1.199219.046875l3.625-2.5c.484375.449219.957031.921875 1.40625 1.40625l-2.5 3.625c-.253906.363281-.234375.851562.046875 1.199219.769532.949218 1.46875 1.984374 2.070313 3.070312.214843.386719.65625.585938 1.085937.496094l4.289063-.933594c.273437.601562.527343 1.210938.753906 1.824219l-3.695313 2.378906c-.371093.242187-.542968.699219-.417968 1.125.335937 1.152344.582031 2.375.726562 3.640625.050782.4375.378906.789062.8125.871094l4.300782.785156h-10.960938c-.554688 0-1 .445312-1 1v4c0 .554688.445312 1 1 1h.585938l-2.585938 2.585938-2.585938-2.585938h.585938c.554688 0 1-.445312 1-1v-4c0-.554688-.445312-1-1-1h-4.5c-.058594-.511719-.167969-1.011719-.3125-1.492188-.023438-.078124-.054688-.152343-.078125-.230468-.058594-.171875-.121094-.34375-.1875-.507813-.039063-.089843-.078125-.179687-.117187-.269531-.070313-.148438-.136719-.296875-.214844-.441406-.046875-.089844-.09375-.179688-.144532-.265625-.078124-.140625-.164062-.277344-.25-.414063-.054687-.082031-.105468-.164062-.164062-.246094-.097656-.140624-.203125-.277343-.308594-.414062-.050781-.066406-.101562-.136719-.15625-.203125-.160156-.1875-.324218-.371094-.5-.546875-.011718-.011719-.023437-.023438-.035156-.035156-.175781-.175782-.359375-.339844-.546875-.5-.066406-.054688-.136719-.105469-.203125-.15625-.136719-.105469-.273438-.210938-.414062-.308594-.082032-.058594-.164063-.109375-.246094-.164062-.136719-.085938-.273438-.171876-.414063-.25-.085937-.050782-.175781-.097657-.265625-.144532-.144531-.078125-.292968-.144531-.441406-.214844-.089844-.039062-.179688-.078124-.269531-.117187-.164063-.066406-.335938-.128906-.507813-.1875-.078125-.023437-.152344-.054687-.230468-.078125-.480469-.144531-.980469-.253906-1.492188-.3125v-3.5h2v2c0 .40625.242188.769531.617188.921875.375.15625.804687.070313 1.089843-.214844l5-5c.390625-.390625.390625-1.023437 0-1.414062l-5-5c-.285156-.285157-.714843-.371094-1.089843-.21875-.375.15625-.617188.519531-.617188.925781v2h-2v-9.960938l.785156 4.300782c.082032.433594.433594.761718.871094.8125zm-2.65625 29.40625c-3.617188 0-6.558594-2.941406-6.558594-6.558594s2.941406-6.558594 6.558594-6.558594 6.558594 2.941406 6.558594 6.558594-2.941406 6.558594-6.558594 6.558594zm-23.660156-8.34375c.433594-.082032.761718-.433594.8125-.871094.144531-1.265625.390625-2.492188.726562-3.640625.125-.429687-.042968-.882813-.417968-1.125l-3.695313-2.378906c.226563-.613281.480469-1.222657.757813-1.824219l4.285156.933594c.429687.089844.871094-.109375 1.085937-.496094.601563-1.085938 1.300781-2.121094 2.074219-3.070312.277344-.347657.296875-.835938.046875-1.199219l-2.503906-3.625c.449219-.484375.921875-.957031 1.410156-1.40625l3.621094 2.5c.363281.253906.851562.234375 1.199219-.046875.949218-.769532 1.984374-1.46875 3.074218-2.070313.386719-.214843.585938-.65625.492188-1.085937l-.933594-4.289063c.601562-.273437 1.210938-.527343 1.824219-.753906l2.378906 3.695313c.242187.375.699219.542968 1.125.417968 1.152344-.335937 2.375-.582031 3.640625-.726562.4375-.050782.792969-.378906.871094-.8125l.785156-4.300782v10.960938c0 .554688.445312 1 1 1h4c.554688 0 1-.445312 1-1v-.585938l2.585938 2.585938-2.585938 2.585938v-.585938c0-.554688-.445312-1-1-1h-4c-.554688 0-1 .445312-1 1v4.5c-.511719.058594-1.011719.167969-1.492188.3125-.078124.023438-.152343.054688-.230468.078125-.171875.058594-.34375.121094-.507813.1875-.089843.039063-.179687.078125-.269531.117187-.148438.070313-.296875.140626-.441406.214844-.089844.046875-.179688.09375-.265625.144532-.140625.078124-.277344.164062-.414063.25-.082031.054687-.164062.105468-.246094.164062-.140624.097656-.277343.203125-.414062.308594-.066406.050781-.136719.101562-.203125.15625-.1875.160156-.371094.324218-.546875.5-.011719.011718-.023438.023437-.035156.035156-.175782.175781-.339844.359375-.5.546875-.054688.066406-.105469.136719-.15625.203125-.105469.136719-.210938.273438-.308594.414062-.058594.082032-.109375.164063-.164062.246094-.085938.136719-.171876.273438-.25.414063-.050782.085937-.097657.175781-.144532.265625-.078125.144531-.144531.292968-.214844.441406-.039062.089844-.078124.179688-.117187.269531-.066406.164063-.128906.335938-.1875.507813-.023437.078125-.054687.152344-.078125.230468-.144531.480469-.253906.980469-.3125 1.492188h-3.5v-2h2c.40625 0 .769531-.242188.921875-.617188.15625-.375.070313-.804687-.214844-1.089843l-5-5c-.390625-.390625-1.023437-.390625-1.414062 0l-5 5c-.285157.285156-.371094.714843-.21875 1.089843.15625.375.519531.617188.925781.617188h2v2h-9.960938zm21.003906 24.632812c-1.265625-.144531-2.492188-.390625-3.640625-.726562-.09375-.027344-.1875-.042969-.28125-.042969-.335937 0-.65625.167969-.84375.460937l-2.378906 3.695313c-.613281-.226563-1.222657-.480469-1.824219-.757813l.933594-4.285156c.09375-.429687-.105469-.871094-.496094-1.085937-1.085938-.601563-2.121094-1.300781-3.070312-2.074219-.347657-.277344-.835938-.296875-1.199219-.046875l-3.625 2.503906c-.484375-.449219-.957031-.921875-1.40625-1.410156l2.5-3.621094c.253906-.363281.234375-.851562-.046875-1.199219-.769532-.949218-1.46875-1.984374-2.070313-3.074218-.214843-.386719-.65625-.582032-1.085937-.492188l-4.289063.933594c-.273437-.601562-.527343-1.210938-.753906-1.824219l3.695313-2.378906c.371093-.242187.542968-.699219.417968-1.125-.335937-1.152344-.582031-2.375-.726562-3.640625-.050782-.4375-.378906-.792969-.8125-.871094l-4.300782-.785156h10.960938c.554688 0 1-.445312 1-1v-4c0-.554688-.445312-1-1-1h-.585938l2.585938-2.585938 2.585938 2.585938h-.585938c-.554688 0-1 .445312-1 1v4c0 .554688.445312 1 1 1h4.5c.058594.511719.167969 1.011719.3125 1.492188.023438.078124.054688.152343.078125.230468.058594.171875.121094.34375.1875.507813.039063.09375.078125.179687.117187.269531.070313.148438.136719.296875.214844.441406.046875.089844.09375.179688.144532.265625.078124.140625.164062.277344.25.414063.054687.082031.105468.164062.164062.246094.097656.140624.203125.277343.308594.414062.050781.066406.101562.136719.15625.203125.160156.1875.324218.371094.5.546875.011718.011719.023437.023438.035156.035156.175781.175782.359375.339844.546875.5.066406.054688.136719.105469.203125.15625.136719.105469.273438.210938.414062.308594.082032.058594.164063.109375.246094.164062.136719.085938.273438.171876.414063.25.085937.050782.175781.097657.265625.144532.144531.078125.292968.144531.441406.214844.089844.039062.175781.078124.269531.117187.164063.066406.335938.128906.507813.1875.078125.023437.152344.054687.230468.078125.480469.144531.980469.253906 1.492188.3125v3.5h-2v-2c0-.40625-.242188-.769531-.617188-.921875-.375-.15625-.804687-.070313-1.089843.214844l-5 5c-.390625.390625-.390625 1.023437 0 1.414062l5 5c.285156.289063.714843.375 1.089843.21875s.617188-.519531.617188-.925781v-2h2v9.960938l-.785156-4.300782c-.082032-.433594-.433594-.761718-.871094-.8125zm26.316406-21.0625c-.433594.082032-.761718.433594-.8125.871094-.144531 1.265625-.390625 2.492188-.726562 3.640625-.125.429687.042968.882813.417968 1.125l3.695313 2.378906c-.226563.613281-.480469 1.222657-.753906 1.824219l-4.289063-.933594c-.429687-.089844-.871094.109375-1.085937.496094-.601563 1.085938-1.300781 2.121094-2.070313 3.070312-.28125.347657-.300781.835938-.046875 1.199219l2.5 3.625c-.449219.484375-.921875.957031-1.40625 1.40625l-3.625-2.5c-.363281-.253906-.851562-.234375-1.199219.046875-.949218.769532-1.984374 1.46875-3.070312 2.070313-.390625.214843-.589844.65625-.496094 1.085937l.933594 4.289063c-.601562.273437-1.210938.527343-1.824219.753906l-2.378906-3.695313c-.242187-.375-.699219-.542968-1.125-.417968-1.152344.335937-2.375.582031-3.640625.726562-.4375.050782-.789062.378906-.871094.8125l-.785156 4.300782v-10.960938c0-.554688-.445312-1-1-1h-4c-.554688 0-1 .445312-1 1v.585938l-2.585938-2.585938 2.585938-2.585938v.585938c0 .554688.445312 1 1 1h4c.554688 0 1-.445312 1-1v-4.5c.511719-.058594 1.011719-.167969 1.492188-.3125.078124-.023438.152343-.054688.230468-.078125.171875-.058594.34375-.121094.507813-.1875.089843-.039063.179687-.078125.269531-.117187.148438-.070313.296875-.136719.441406-.214844.089844-.046875.179688-.09375.265625-.144532.140625-.078124.277344-.164062.414063-.25.082031-.054687.164062-.105468.246094-.164062.140624-.097656.277343-.203125.414062-.308594.066406-.050781.136719-.101562.203125-.15625.1875-.160156.371094-.324218.546875-.5.011719-.011718.023438-.023437.035156-.035156.175782-.175781.339844-.359375.5-.546875.054688-.066406.105469-.136719.15625-.203125.105469-.136719.210938-.273438.308594-.414062.058594-.082032.109375-.164063.164062-.246094.085938-.136719.171876-.273438.25-.414063.050782-.085937.097657-.175781.144532-.265625.074218-.144531.144531-.292968.214844-.441406.039062-.089844.078124-.179688.117187-.269531.066406-.164063.128906-.335938.1875-.507813.023437-.078125.054687-.152344.078125-.230468.144531-.480469.253906-.980469.3125-1.492188h3.5v2h-2c-.40625 0-.769531.242188-.921875.617188-.15625.375-.070313.804687.214844 1.089843l5 5c.195312.195313.449219.292969.707031.292969s.511719-.097656.707031-.292969l5-5c.285157-.285156.371094-.714843.21875-1.089843-.15625-.375-.519531-.617188-.925781-.617188h-2v-2h9.960938zm0 0" fill="#006DF0"/></svg>
